<svg xmlns="http://www.w3.org/2000/svg" xmlns:xlink="http://www.w3.org/1999/xlink" width="40" zoomAndPan="magnify" viewBox="0 0 30 30.000001" height="40" preserveAspectRatio="xMidYMid meet" version="1.0"><defs><clipPath id="24eb6bb9a0"><path d="M 4 5 L 26 5 L 26 28.359375 L 4 28.359375 Z M 4 5 " clip-rule="nonzero"/></clipPath><clipPath id="758d5fd905"><path d="M 0.484375 0.78125 L 29.515625 0.78125 L 29.515625 16 L 0.484375 16 Z M 0.484375 0.78125 " clip-rule="nonzero"/></clipPath></defs><g clip-path="url(#24eb6bb9a0)"><path fill="#000000" d="M 25.191406 14.800781 Z M 25.191406 14.800781 L 15.003906 5.738281 L 4.808594 14.804688 L 4.808594 27.757812 C 4.808594 28.089844 5.078125 28.359375 5.410156 28.359375 L 11.78125 28.359375 L 11.78125 22.679688 C 11.78125 22.34375 12.050781 22.074219 12.382812 22.074219 L 17.617188 22.074219 C 17.949219 22.074219 18.21875 22.34375 18.21875 22.679688 L 18.21875 28.359375 L 24.589844 28.359375 C 24.925781 28.359375 25.191406 28.089844 25.191406 27.757812 Z M 4.808594 14.804688 Z M 4.808594 14.804688 " fill-opacity="1" fill-rule="nonzero"/></g><g clip-path="url(#758d5fd905)"><path fill="#000000" d="M 14.945312 0.78125 L 0.484375 13.636719 L 2.007812 15.363281 L 15.003906 3.804688 L 27.996094 15.363281 L 29.515625 13.636719 L 15.058594 0.78125 L 15.003906 0.84375 Z M 14.945312 0.78125 " fill-opacity="1" fill-rule="nonzero"/></g><path fill="#000000" d="M 4.808594 2.632812 L 8.472656 2.632812 L 8.441406 4.8125 L 4.808594 8.105469 Z M 4.808594 2.632812 " fill-opacity="1" fill-rule="nonzero"/></svg>