<svg xmlns="http://www.w3.org/2000/svg" xmlns:xlink="http://www.w3.org/1999/xlink" width="40" zoomAndPan="magnify" viewBox="0 0 30 30.000001" height="40" preserveAspectRatio="xMidYMid meet" version="1.0"><defs><clipPath id="4c37953ab5"><path d="M 0.484375 0 L 29.496094 0 L 29.496094 29.03125 L 0.484375 29.03125 Z M 0.484375 0 " clip-rule="nonzero"/></clipPath></defs><g clip-path="url(#4c37953ab5)"><path fill="#100f0d" d="M 14.898438 8.996094 C 17.917969 8.9375 20.40625 11.339844 20.464844 14.359375 C 20.464844 14.414062 20.464844 14.464844 20.464844 14.519531 C 20.496094 17.535156 18.078125 20.011719 15.0625 20.042969 C 12.042969 20.078125 9.570312 17.660156 9.535156 14.640625 C 9.535156 14.601562 9.535156 14.558594 9.535156 14.519531 C 9.503906 11.515625 11.898438 9.050781 14.898438 8.996094 Z M 15.484375 0.0117188 C 14.671875 -0.015625 13.851562 0.0273438 13.046875 0.132812 C 12.761719 0.171875 12.527344 0.375 12.441406 0.648438 L 11.636719 3.265625 C 11.566406 3.488281 11.398438 3.664062 11.175781 3.742188 C 10.796875 3.878906 10.425781 4.03125 10.0625 4.203125 C 9.851562 4.308594 9.605469 4.300781 9.398438 4.191406 L 6.980469 2.90625 C 6.726562 2.773438 6.417969 2.800781 6.191406 2.972656 C 5.152344 3.761719 4.230469 4.6875 3.441406 5.71875 C 3.265625 5.949219 3.242188 6.253906 3.375 6.511719 L 4.660156 8.929688 C 4.773438 9.132812 4.78125 9.382812 4.6875 9.59375 C 4.511719 9.957031 4.359375 10.328125 4.222656 10.707031 C 4.144531 10.929688 3.96875 11.097656 3.746094 11.164062 L 1.128906 11.972656 C 0.851562 12.054688 0.652344 12.292969 0.617188 12.574219 C 0.441406 13.867188 0.441406 15.171875 0.617188 16.460938 C 0.652344 16.746094 0.851562 16.984375 1.128906 17.066406 L 3.746094 17.871094 C 3.96875 17.9375 4.144531 18.109375 4.222656 18.332031 C 4.359375 18.710938 4.511719 19.082031 4.6875 19.445312 C 4.78125 19.65625 4.773438 19.902344 4.660156 20.105469 L 3.375 22.527344 C 3.242188 22.78125 3.265625 23.089844 3.441406 23.316406 C 4.230469 24.351562 5.152344 25.273438 6.191406 26.0625 C 6.417969 26.238281 6.726562 26.261719 6.980469 26.128906 L 9.398438 24.847656 C 9.605469 24.734375 9.851562 24.730469 10.0625 24.832031 C 10.425781 25.003906 10.796875 25.160156 11.175781 25.292969 C 11.398438 25.371094 11.566406 25.546875 11.636719 25.769531 L 12.441406 28.386719 C 12.527344 28.664062 12.761719 28.863281 13.046875 28.902344 C 14.335938 29.074219 15.640625 29.074219 16.929688 28.902344 C 17.214844 28.863281 17.449219 28.664062 17.535156 28.386719 L 18.339844 25.769531 C 18.410156 25.546875 18.578125 25.371094 18.800781 25.292969 C 19.179688 25.160156 19.550781 25.003906 19.914062 24.832031 C 20.125 24.730469 20.367188 24.734375 20.574219 24.847656 L 22.996094 26.128906 C 23.25 26.261719 23.558594 26.238281 23.785156 26.0625 C 24.824219 25.273438 25.746094 24.351562 26.535156 23.316406 C 26.710938 23.089844 26.734375 22.78125 26.601562 22.527344 L 25.316406 20.105469 C 25.203125 19.902344 25.195312 19.65625 25.292969 19.445312 C 25.464844 19.082031 25.617188 18.710938 25.753906 18.332031 C 25.832031 18.109375 26.007812 17.9375 26.234375 17.871094 L 28.851562 17.066406 C 29.125 16.980469 29.324219 16.746094 29.363281 16.460938 C 29.535156 15.171875 29.535156 13.867188 29.363281 12.574219 C 29.324219 12.292969 29.125 12.054688 28.851562 11.972656 L 26.234375 11.164062 C 26.007812 11.097656 25.832031 10.929688 25.753906 10.707031 C 25.617188 10.328125 25.464844 9.957031 25.292969 9.59375 C 25.195312 9.382812 25.203125 9.132812 25.316406 8.929688 L 26.601562 6.511719 C 26.734375 6.253906 26.710938 5.949219 26.535156 5.71875 C 25.746094 4.6875 24.824219 3.761719 23.785156 2.972656 C 23.558594 2.800781 23.25 2.773438 22.996094 2.90625 L 20.574219 4.191406 C 20.367188 4.300781 20.125 4.308594 19.914062 4.207031 C 19.550781 4.035156 19.179688 3.878906 18.800781 3.746094 C 18.578125 3.667969 18.410156 3.488281 18.339844 3.265625 L 17.535156 0.648438 C 17.449219 0.375 17.214844 0.171875 16.929688 0.132812 C 16.449219 0.0703125 15.96875 0.0273438 15.484375 0.0117188 " fill-opacity="1" fill-rule="nonzero"/></g></svg>