<svg xmlns="http://www.w3.org/2000/svg" xmlns:xlink="http://www.w3.org/1999/xlink" width="40" zoomAndPan="magnify" viewBox="0 0 30 30.000001" height="40" preserveAspectRatio="xMidYMid meet" version="1.0"><defs><clipPath id="3a860563fa"><path d="M 0.484375 0.265625 L 8 0.265625 L 8 11 L 0.484375 11 Z M 0.484375 0.265625 " clip-rule="nonzero"/></clipPath><clipPath id="2c3efe9a05"><path d="M 2 11 L 6 11 L 6 28.570312 L 2 28.570312 Z M 2 11 " clip-rule="nonzero"/></clipPath><clipPath id="eeed34d1ae"><path d="M 24 11 L 28 11 L 28 28.570312 L 24 28.570312 Z M 24 11 " clip-rule="nonzero"/></clipPath><clipPath id="e277f01d8e"><path d="M 23 0.265625 L 29.515625 0.265625 L 29.515625 11 L 23 11 Z M 23 0.265625 " clip-rule="nonzero"/></clipPath></defs><g clip-path="url(#3a860563fa)"><path fill="#000000" d="M 3.332031 10.269531 L 3.550781 10.3125 C 3.8125 10.347656 4.074219 10.347656 4.335938 10.3125 C 4.410156 10.304688 4.484375 10.289062 4.554688 10.269531 L 4.734375 10.269531 C 5.421875 10.0625 5.996094 9.679688 6.457031 9.132812 C 6.921875 8.582031 7.191406 7.953125 7.277344 7.242188 C 7.3125 7.027344 7.328125 6.816406 7.328125 6.601562 L 7.328125 0.277344 L 6.601562 0.277344 L 6.601562 5.757812 C 6.601562 5.894531 6.550781 6.015625 6.453125 6.113281 C 6.351562 6.210938 6.234375 6.261719 6.09375 6.261719 L 4.789062 6.261719 C 4.648438 6.261719 4.53125 6.210938 4.429688 6.113281 C 4.332031 6.015625 4.28125 5.894531 4.28125 5.757812 L 4.28125 0.277344 L 3.566406 0.277344 L 3.566406 5.757812 C 3.566406 5.894531 3.515625 6.015625 3.417969 6.113281 C 3.316406 6.210938 3.195312 6.261719 3.054688 6.261719 L 1.761719 6.261719 C 1.621094 6.261719 1.5 6.210938 1.402344 6.113281 C 1.300781 6.015625 1.25 5.894531 1.25 5.757812 L 1.25 0.277344 L 0.535156 0.277344 L 0.535156 6.558594 C 0.519531 6.964844 0.566406 7.359375 0.683594 7.75 C 0.796875 8.136719 0.972656 8.496094 1.207031 8.828125 C 1.4375 9.160156 1.71875 9.445312 2.046875 9.6875 C 2.375 9.925781 2.734375 10.105469 3.121094 10.230469 C 3.183594 10.25 3.25 10.257812 3.332031 10.269531 Z M 3.332031 10.269531 " fill-opacity="1" fill-rule="nonzero"/></g><path fill="#000000" d="M 15.234375 5.957031 C 10.992188 5.957031 7.542969 9.75 7.542969 14.417969 C 7.542969 19.082031 10.992188 22.875 15.234375 22.875 C 19.472656 22.875 22.925781 19.082031 22.925781 14.417969 C 22.925781 9.75 19.472656 5.957031 15.234375 5.957031 Z M 15.234375 5.957031 " fill-opacity="1" fill-rule="nonzero"/><path fill="#000000" d="M 24.625 10.882812 C 23.34375 10.125 22.414062 8.511719 22.125 6.589844 L 22.125 6.46875 C 22.125 6.328125 22.085938 6.175781 22.078125 6.027344 L 22.078125 5.894531 C 22.078125 5.710938 22.078125 5.523438 22.078125 5.335938 C 21.617188 4.90625 21.121094 4.527344 20.585938 4.191406 C 20.050781 3.855469 19.492188 3.574219 18.902344 3.34375 C 18.316406 3.117188 17.710938 2.945312 17.089844 2.832031 C 16.46875 2.714844 15.84375 2.660156 15.210938 2.667969 C 14.582031 2.671875 13.957031 2.734375 13.335938 2.855469 C 12.71875 2.980469 12.113281 3.160156 11.53125 3.398438 C 10.945312 3.632812 10.390625 3.921875 9.859375 4.265625 C 9.332031 4.609375 8.839844 4.996094 8.386719 5.433594 L 8.386719 6.570312 C 8.382812 6.8125 8.367188 7.050781 8.335938 7.292969 C 8.335938 7.292969 8.335938 7.332031 8.335938 7.347656 C 8.300781 7.570312 8.253906 7.792969 8.191406 8.007812 C 8.191406 8.035156 8.191406 8.058594 8.167969 8.089844 C 8.105469 8.296875 8.03125 8.496094 7.9375 8.691406 C 7.925781 8.71875 7.914062 8.75 7.898438 8.777344 C 7.808594 8.964844 7.707031 9.148438 7.59375 9.320312 L 7.542969 9.40625 C 7.425781 9.585938 7.300781 9.753906 7.160156 9.914062 L 7.097656 9.984375 C 6.960938 10.136719 6.808594 10.277344 6.644531 10.40625 L 6.585938 10.457031 C 6.425781 10.589844 6.253906 10.707031 6.078125 10.816406 L 6.03125 10.839844 C 5.839844 10.953125 5.636719 11.046875 5.425781 11.125 L 5.933594 20.179688 C 7.832031 23.902344 11.40625 26.210938 15.289062 26.210938 C 18.996094 26.210938 22.371094 24.160156 24.355469 20.71875 L 24.914062 11.035156 C 24.835938 10.996094 24.761719 10.953125 24.6875 10.90625 Z M 15.234375 23.886719 C 10.449219 23.886719 6.523438 19.640625 6.523438 14.417969 C 6.523438 9.195312 10.449219 4.949219 15.234375 4.949219 C 20.019531 4.949219 23.945312 9.195312 23.945312 14.417969 C 23.945312 19.640625 20.039062 23.886719 15.234375 23.886719 Z M 15.234375 23.886719 " fill-opacity="1" fill-rule="nonzero"/><g clip-path="url(#2c3efe9a05)"><path fill="#000000" d="M 4.347656 11.417969 L 4.347656 11.328125 C 4.214844 11.335938 4.082031 11.335938 3.953125 11.328125 L 3.921875 11.328125 C 3.785156 11.328125 3.644531 11.328125 3.507812 11.300781 L 2.597656 26.941406 C 2.5625 27.40625 2.703125 27.808594 3.019531 28.152344 C 3.136719 28.277344 3.273438 28.375 3.429688 28.441406 C 3.589844 28.507812 3.753906 28.542969 3.921875 28.542969 C 4.09375 28.542969 4.257812 28.507812 4.414062 28.441406 C 4.574219 28.375 4.710938 28.277344 4.824219 28.152344 C 5.144531 27.808594 5.285156 27.40625 5.253906 26.941406 L 4.347656 11.460938 Z M 4.347656 11.417969 " fill-opacity="1" fill-rule="nonzero"/></g><g clip-path="url(#eeed34d1ae)"><path fill="#000000" d="M 26.359375 11.347656 L 26.210938 11.347656 C 26.09375 11.347656 25.984375 11.347656 25.867188 11.320312 L 25.3125 20.867188 L 24.957031 26.925781 C 24.925781 27.390625 25.066406 27.792969 25.382812 28.136719 C 25.5 28.261719 25.636719 28.359375 25.792969 28.425781 C 25.949219 28.492188 26.113281 28.527344 26.285156 28.527344 C 26.457031 28.527344 26.621094 28.492188 26.777344 28.425781 C 26.933594 28.359375 27.070312 28.261719 27.1875 28.136719 C 27.503906 27.796875 27.648438 27.390625 27.613281 26.925781 L 26.71875 11.320312 C 26.585938 11.335938 26.46875 11.339844 26.359375 11.347656 Z M 26.359375 11.347656 " fill-opacity="1" fill-rule="nonzero"/></g><g clip-path="url(#e277f01d8e)"><path fill="#000000" d="M 26.28125 0.277344 C 24.539062 0.277344 23.113281 2.433594 23.046875 5.121094 L 23.046875 5.296875 C 23.046875 5.453125 23.046875 5.609375 23.046875 5.761719 C 23.046875 5.914062 23.046875 5.921875 23.046875 6.003906 C 23.046875 6.085938 23.046875 6.136719 23.046875 6.195312 C 23.046875 6.257812 23.078125 6.417969 23.09375 6.527344 L 23.09375 6.601562 C 23.40625 8.367188 24.339844 9.796875 25.535156 10.207031 C 25.613281 10.234375 25.6875 10.253906 25.769531 10.269531 L 25.839844 10.269531 C 26.074219 10.308594 26.308594 10.308594 26.542969 10.269531 C 26.65625 10.25 26.769531 10.21875 26.878906 10.179688 C 28.320312 9.675781 29.417969 7.65625 29.417969 5.277344 C 29.515625 2.535156 28.066406 0.277344 26.28125 0.277344 Z M 26.28125 0.277344 " fill-opacity="1" fill-rule="nonzero"/></g></svg>