<svg xmlns="http://www.w3.org/2000/svg" xmlns:xlink="http://www.w3.org/1999/xlink" width="40" zoomAndPan="magnify" viewBox="0 0 30 30.000001" height="40" preserveAspectRatio="xMidYMid meet" version="1.0"><defs><clipPath id="5699423282"><path d="M 0.484375 13 L 3 13 L 3 16 L 0.484375 16 Z M 0.484375 13 " clip-rule="nonzero"/></clipPath><clipPath id="9b1169f40b"><path d="M 27 13 L 29.515625 13 L 29.515625 16 L 27 16 Z M 27 13 " clip-rule="nonzero"/></clipPath><clipPath id="11e45fb38a"><path d="M 6 7.09375 L 10 7.09375 L 10 21.609375 L 6 21.609375 Z M 6 7.09375 " clip-rule="nonzero"/></clipPath><clipPath id="ff195212a6"><path d="M 20 7.09375 L 24 7.09375 L 24 21.609375 L 20 21.609375 Z M 20 7.09375 " clip-rule="nonzero"/></clipPath></defs><g clip-path="url(#5699423282)"><path fill="#000000" d="M 2.074219 13.351562 L 2.074219 15.515625 C 2.074219 15.566406 2.046875 15.59375 1.996094 15.59375 L 0.96875 15.59375 C 0.839844 15.59375 0.726562 15.546875 0.632812 15.457031 C 0.542969 15.367188 0.496094 15.257812 0.496094 15.128906 L 0.496094 13.734375 C 0.496094 13.605469 0.542969 13.496094 0.632812 13.40625 C 0.726562 13.316406 0.839844 13.269531 0.96875 13.269531 L 1.996094 13.269531 C 2.046875 13.269531 2.074219 13.296875 2.074219 13.347656 Z M 2.074219 13.351562 " fill-opacity="1" fill-rule="nonzero"/></g><g clip-path="url(#9b1169f40b)"><path fill="#000000" d="M 29.519531 13.734375 L 29.519531 15.125 C 29.519531 15.253906 29.472656 15.363281 29.378906 15.453125 C 29.289062 15.546875 29.175781 15.589844 29.042969 15.589844 L 28.019531 15.589844 C 27.964844 15.589844 27.9375 15.566406 27.9375 15.511719 L 27.9375 13.347656 C 27.9375 13.296875 27.964844 13.269531 28.019531 13.269531 L 29.042969 13.269531 C 29.175781 13.269531 29.289062 13.316406 29.378906 13.40625 C 29.472656 13.496094 29.519531 13.605469 29.519531 13.734375 Z M 29.519531 13.734375 " fill-opacity="1" fill-rule="nonzero"/></g><path fill="#000000" d="M 6.015625 10.03125 L 6.015625 18.675781 C 6.015625 18.890625 5.941406 19.070312 5.785156 19.222656 C 5.632812 19.375 5.445312 19.449219 5.226562 19.449219 L 3.644531 19.449219 C 3.425781 19.449219 3.242188 19.375 3.085938 19.222656 C 2.933594 19.070312 2.855469 18.890625 2.855469 18.675781 L 2.855469 10.03125 C 2.855469 9.816406 2.933594 9.632812 3.085938 9.484375 C 3.242188 9.332031 3.425781 9.257812 3.644531 9.257812 L 5.226562 9.257812 C 5.445312 9.257812 5.632812 9.332031 5.785156 9.484375 C 5.941406 9.632812 6.015625 9.816406 6.015625 10.03125 Z M 6.015625 10.03125 " fill-opacity="1" fill-rule="nonzero"/><g clip-path="url(#11e45fb38a)"><path fill="#000000" d="M 9.960938 7.871094 L 9.960938 20.835938 C 9.960938 21.050781 9.882812 21.230469 9.726562 21.382812 C 9.574219 21.535156 9.386719 21.609375 9.167969 21.609375 L 7.589844 21.609375 C 7.371094 21.609375 7.183594 21.535156 7.027344 21.382812 C 6.875 21.230469 6.796875 21.050781 6.796875 20.835938 L 6.796875 7.871094 C 6.796875 7.65625 6.875 7.472656 7.027344 7.324219 C 7.183594 7.171875 7.371094 7.097656 7.589844 7.097656 L 9.167969 7.097656 C 9.386719 7.097656 9.574219 7.171875 9.726562 7.324219 C 9.882812 7.472656 9.960938 7.65625 9.960938 7.871094 Z M 9.960938 7.871094 " fill-opacity="1" fill-rule="nonzero"/></g><path fill="#000000" d="M 27.152344 10.03125 L 27.152344 18.675781 C 27.152344 18.890625 27.074219 19.070312 26.921875 19.222656 C 26.765625 19.375 26.582031 19.449219 26.363281 19.449219 L 24.78125 19.449219 C 24.5625 19.449219 24.375 19.375 24.222656 19.222656 C 24.066406 19.070312 23.992188 18.890625 23.992188 18.675781 L 23.992188 10.03125 C 23.992188 9.816406 24.066406 9.632812 24.222656 9.484375 C 24.375 9.332031 24.5625 9.257812 24.78125 9.257812 L 26.363281 9.257812 C 26.582031 9.257812 26.765625 9.332031 26.921875 9.484375 C 27.074219 9.632812 27.152344 9.816406 27.152344 10.03125 Z M 27.152344 10.03125 " fill-opacity="1" fill-rule="nonzero"/><g clip-path="url(#ff195212a6)"><path fill="#000000" d="M 23.210938 7.871094 L 23.210938 20.835938 C 23.210938 21.050781 23.132812 21.230469 22.976562 21.382812 C 22.824219 21.535156 22.636719 21.609375 22.417969 21.609375 L 20.835938 21.609375 C 20.617188 21.609375 20.433594 21.535156 20.277344 21.382812 C 20.125 21.230469 20.046875 21.050781 20.046875 20.835938 L 20.046875 7.871094 C 20.046875 7.65625 20.125 7.472656 20.277344 7.324219 C 20.433594 7.171875 20.617188 7.097656 20.835938 7.097656 L 22.417969 7.097656 C 22.636719 7.097656 22.824219 7.171875 22.976562 7.324219 C 23.132812 7.472656 23.210938 7.65625 23.210938 7.871094 Z M 23.210938 7.871094 " fill-opacity="1" fill-rule="nonzero"/></g><path fill="#000000" d="M 19.265625 12.578125 L 19.265625 16.28125 C 19.265625 16.335938 19.242188 16.359375 19.1875 16.359375 L 10.828125 16.359375 C 10.777344 16.359375 10.75 16.335938 10.75 16.28125 L 10.75 12.578125 C 10.75 12.527344 10.777344 12.5 10.828125 12.5 L 19.1875 12.5 C 19.242188 12.5 19.265625 12.527344 19.265625 12.578125 Z M 19.265625 12.578125 " fill-opacity="1" fill-rule="nonzero"/></svg>