<svg xmlns="http://www.w3.org/2000/svg" xmlns:xlink="http://www.w3.org/1999/xlink" width="40" zoomAndPan="magnify" viewBox="0 0 30 30.000001" height="40" preserveAspectRatio="xMidYMid meet" version="1.0"><defs><clipPath id="0d0b6b9743"><path d="M 2 0.5625 L 28 0.5625 L 28 4 L 2 4 Z M 2 0.5625 " clip-rule="nonzero"/></clipPath><clipPath id="e3358c9f89"><path d="M 0.535156 7 L 5 7 L 5 14 L 0.535156 14 Z M 0.535156 7 " clip-rule="nonzero"/></clipPath><clipPath id="9909d30bf3"><path d="M 25 7 L 29.515625 7 L 29.515625 14 L 25 14 Z M 25 7 " clip-rule="nonzero"/></clipPath><clipPath id="fd79e89529"><path d="M 2 12 L 28 12 L 28 28.144531 L 2 28.144531 Z M 2 12 " clip-rule="nonzero"/></clipPath></defs><g clip-path="url(#0d0b6b9743)"><path fill="#000000" d="M 3.835938 3.871094 C 3.222656 3.871094 2.71875 3.375 2.71875 2.769531 L 2.71875 1.664062 C 2.71875 1.058594 3.222656 0.5625 3.835938 0.5625 L 26.152344 0.5625 C 26.769531 0.5625 27.269531 1.058594 27.269531 1.664062 L 27.269531 2.769531 C 27.269531 3.375 26.769531 3.871094 26.152344 3.871094 Z M 3.835938 3.871094 " fill-opacity="1" fill-rule="nonzero"/></g><g clip-path="url(#e3358c9f89)"><path fill="#000000" d="M 2.753906 7.183594 L 0.820312 12.664062 C 0.820312 12.664062 0.800781 13.792969 1.953125 13.792969 C 2.917969 13.792969 2.921875 12.664062 2.921875 12.664062 L 4.566406 7.183594 Z M 2.753906 7.183594 " fill-opacity="1" fill-rule="nonzero"/></g><path fill="#000000" d="M 7.289062 7.183594 L 6.070312 12.664062 C 6.070312 12.664062 6.082031 13.792969 7.183594 13.792969 C 8.285156 13.792969 8.171875 12.664062 8.171875 12.664062 L 9.101562 7.183594 Z M 7.289062 7.183594 " fill-opacity="1" fill-rule="nonzero"/><path fill="#000000" d="M 11.820312 7.183594 L 11.320312 12.664062 C 11.320312 12.664062 11.332031 13.792969 12.398438 13.792969 C 13.460938 13.792969 13.421875 12.664062 13.421875 12.664062 L 13.632812 7.183594 Z M 11.820312 7.183594 " fill-opacity="1" fill-rule="nonzero"/><path fill="#000000" d="M 16.355469 7.183594 L 16.570312 12.664062 C 16.570312 12.664062 16.53125 13.792969 17.628906 13.792969 C 18.722656 13.792969 18.667969 12.664062 18.667969 12.664062 L 18.167969 7.183594 Z M 16.355469 7.183594 " fill-opacity="1" fill-rule="nonzero"/><path fill="#000000" d="M 20.890625 7.183594 L 21.820312 12.664062 C 21.820312 12.664062 21.898438 13.792969 22.929688 13.792969 C 23.886719 13.792969 23.921875 12.664062 23.921875 12.664062 L 22.703125 7.183594 Z M 20.890625 7.183594 " fill-opacity="1" fill-rule="nonzero"/><g clip-path="url(#9909d30bf3)"><path fill="#000000" d="M 25.421875 7.183594 L 27.070312 12.664062 C 27.070312 12.664062 27.007812 13.792969 28.160156 13.792969 C 29.3125 13.792969 29.171875 12.664062 29.171875 12.664062 L 27.234375 7.183594 Z M 25.421875 7.183594 " fill-opacity="1" fill-rule="nonzero"/></g><path fill="#000000" d="M 2.71875 8.285156 L 2.71875 6.078125 C 2.71875 5.472656 3.222656 4.976562 3.835938 4.976562 L 26.152344 4.976562 C 26.769531 4.976562 27.269531 5.472656 27.269531 6.078125 L 27.269531 8.285156 Z M 2.71875 8.285156 " fill-opacity="1" fill-rule="nonzero"/><g clip-path="url(#fd79e89529)"><path fill="#000000" d="M 27.046875 12.699219 C 27.046875 12.722656 27.054688 12.746094 27.054688 12.769531 C 27.054688 13.628906 26.347656 14.332031 25.476562 14.332031 C 24.601562 14.332031 23.894531 13.628906 23.894531 12.769531 C 23.894531 12.746094 23.902344 12.722656 23.902344 12.699219 L 21.816406 12.699219 C 21.816406 12.722656 21.824219 12.746094 21.824219 12.769531 C 21.824219 13.628906 21.117188 14.332031 20.246094 14.332031 C 19.371094 14.332031 18.664062 13.628906 18.664062 12.769531 C 18.664062 12.746094 18.671875 12.722656 18.671875 12.699219 L 16.570312 12.699219 C 16.570312 12.722656 16.578125 12.746094 16.578125 12.769531 C 16.578125 13.628906 15.867188 14.332031 14.996094 14.332031 C 14.125 14.332031 13.414062 13.628906 13.414062 12.769531 C 13.414062 12.746094 13.421875 12.722656 13.421875 12.699219 L 11.320312 12.699219 C 11.320312 12.722656 11.328125 12.746094 11.328125 12.769531 C 11.328125 13.628906 10.621094 14.332031 9.746094 14.332031 C 8.875 14.332031 8.167969 13.628906 8.167969 12.769531 C 8.167969 12.746094 8.171875 12.722656 8.175781 12.699219 L 6.070312 12.699219 C 6.070312 12.722656 6.078125 12.746094 6.078125 12.769531 C 6.078125 13.628906 5.371094 14.332031 4.496094 14.332031 C 3.625 14.332031 2.917969 13.628906 2.917969 12.769531 C 2.917969 12.746094 2.925781 12.722656 2.925781 12.699219 L 2.71875 12.699219 L 2.71875 27.039062 C 2.71875 27.648438 3.222656 28.144531 3.835938 28.144531 L 18.34375 28.144531 L 18.34375 17.109375 L 23.921875 17.109375 L 23.921875 28.144531 L 26.152344 28.144531 C 26.769531 28.144531 27.269531 27.648438 27.269531 27.039062 L 27.269531 12.699219 Z M 14.996094 24.832031 L 6.066406 24.832031 L 6.066406 17.109375 L 14.996094 17.109375 Z M 14.996094 24.832031 " fill-opacity="1" fill-rule="nonzero"/></g></svg>