<svg xmlns="http://www.w3.org/2000/svg" xmlns:xlink="http://www.w3.org/1999/xlink" width="40" zoomAndPan="magnify" viewBox="0 0 30 30.000001" height="40" preserveAspectRatio="xMidYMid meet" version="1.0"><defs><clipPath id="a8eed88142"><path d="M 0.484375 0 L 29.515625 0 L 29.515625 29.03125 L 0.484375 29.03125 Z M 0.484375 0 " clip-rule="nonzero"/></clipPath></defs><g clip-path="url(#a8eed88142)"><path fill="#000000" d="M 15 0 C 6.996094 0 0.484375 6.511719 0.484375 14.515625 C 0.484375 22.519531 6.996094 29.03125 15 29.03125 C 23.003906 29.03125 29.515625 22.519531 29.515625 14.515625 C 29.515625 6.511719 23.003906 0 15 0 Z M 15 26.222656 C 8.546875 26.222656 3.292969 20.972656 3.292969 14.515625 C 3.292969 8.0625 8.546875 2.808594 15 2.808594 C 21.453125 2.808594 26.707031 8.0625 26.707031 14.515625 C 26.707031 20.972656 21.453125 26.222656 15 26.222656 Z M 15 26.222656 " fill-opacity="1" fill-rule="nonzero"/></g><path fill="#000000" d="M 20.445312 13.113281 L 16.40625 13.113281 L 16.40625 9.074219 C 16.40625 8.296875 15.777344 7.667969 15 7.667969 C 14.222656 7.667969 13.59375 8.296875 13.59375 9.074219 L 13.59375 13.113281 L 9.554688 13.113281 C 8.78125 13.113281 8.152344 13.738281 8.152344 14.515625 C 8.152344 15.292969 8.78125 15.921875 9.554688 15.921875 L 13.59375 15.921875 L 13.59375 19.960938 C 13.59375 20.734375 14.222656 21.363281 15 21.363281 C 15.777344 21.363281 16.40625 20.734375 16.40625 19.960938 L 16.40625 15.921875 L 20.445312 15.921875 C 21.21875 15.921875 21.847656 15.292969 21.847656 14.515625 C 21.847656 13.738281 21.21875 13.113281 20.445312 13.113281 Z M 20.445312 13.113281 " fill-opacity="1" fill-rule="nonzero"/></svg>