<svg xmlns="http://www.w3.org/2000/svg" xmlns:xlink="http://www.w3.org/1999/xlink" width="40" zoomAndPan="magnify" viewBox="0 0 30 30.000001" height="40" preserveAspectRatio="xMidYMid meet" version="1.0"><defs><clipPath id="54015a6399"><path d="M 0.484375 0 L 29.515625 0 L 29.515625 29.03125 L 0.484375 29.03125 Z M 0.484375 0 " clip-rule="nonzero"/></clipPath></defs><g clip-path="url(#54015a6399)"><path fill="#000000" d="M 25.265625 4.25 C 22.523438 1.511719 18.878906 0 15 0 C 11.121094 0 7.476562 1.511719 4.734375 4.25 C 1.992188 6.992188 0.484375 10.640625 0.484375 14.515625 C 0.484375 18.394531 1.992188 22.039062 4.734375 24.78125 C 7.476562 27.523438 11.121094 29.03125 15 29.03125 C 18.878906 29.03125 22.523438 27.523438 25.265625 24.78125 C 28.007812 22.039062 29.515625 18.394531 29.515625 14.515625 C 29.515625 10.640625 28.007812 6.992188 25.265625 4.25 Z M 23.683594 24.089844 L 23.683594 23.808594 C 23.683594 21.285156 21.636719 19.242188 19.117188 19.242188 L 11.199219 19.242188 C 8.679688 19.242188 6.632812 21.285156 6.632812 23.808594 L 6.632812 24.371094 C 3.84375 21.996094 2.066406 18.460938 2.066406 14.515625 C 2.066406 7.386719 7.867188 1.582031 15 1.582031 C 22.132812 1.582031 27.933594 7.386719 27.933594 14.515625 C 27.933594 18.308594 26.292969 21.722656 23.683594 24.089844 Z M 23.683594 24.089844 " fill-opacity="1" fill-rule="nonzero"/></g><path fill="#000000" d="M 20.253906 12.746094 C 20.253906 13.09375 20.21875 13.4375 20.152344 13.777344 C 20.082031 14.117188 19.984375 14.449219 19.851562 14.769531 C 19.71875 15.085938 19.554688 15.390625 19.363281 15.679688 C 19.167969 15.96875 18.949219 16.234375 18.707031 16.480469 C 18.460938 16.726562 18.195312 16.945312 17.90625 17.136719 C 17.617188 17.328125 17.3125 17.492188 16.992188 17.625 C 16.671875 17.757812 16.34375 17.855469 16.003906 17.925781 C 15.664062 17.992188 15.320312 18.027344 14.972656 18.027344 C 14.625 18.027344 14.285156 17.992188 13.945312 17.925781 C 13.605469 17.855469 13.273438 17.757812 12.953125 17.625 C 12.632812 17.492188 12.328125 17.328125 12.039062 17.136719 C 11.753906 16.945312 11.484375 16.726562 11.242188 16.480469 C 10.996094 16.234375 10.777344 15.96875 10.585938 15.679688 C 10.390625 15.390625 10.230469 15.085938 10.097656 14.769531 C 9.964844 14.449219 9.863281 14.117188 9.796875 13.777344 C 9.730469 13.4375 9.695312 13.09375 9.695312 12.746094 C 9.695312 12.402344 9.730469 12.058594 9.796875 11.71875 C 9.863281 11.378906 9.964844 11.046875 10.097656 10.726562 C 10.230469 10.40625 10.390625 10.101562 10.585938 9.816406 C 10.777344 9.527344 10.996094 9.261719 11.242188 9.015625 C 11.484375 8.769531 11.753906 8.550781 12.039062 8.359375 C 12.328125 8.167969 12.632812 8.003906 12.953125 7.871094 C 13.273438 7.738281 13.605469 7.636719 13.945312 7.570312 C 14.285156 7.503906 14.625 7.46875 14.972656 7.46875 C 15.320312 7.46875 15.664062 7.503906 16.003906 7.570312 C 16.34375 7.636719 16.671875 7.738281 16.992188 7.871094 C 17.3125 8.003906 17.617188 8.167969 17.90625 8.359375 C 18.195312 8.550781 18.460938 8.769531 18.707031 9.015625 C 18.949219 9.261719 19.167969 9.527344 19.363281 9.816406 C 19.554688 10.101562 19.71875 10.40625 19.851562 10.726562 C 19.984375 11.046875 20.082031 11.378906 20.152344 11.71875 C 20.21875 12.058594 20.253906 12.402344 20.253906 12.746094 Z M 20.253906 12.746094 " fill-opacity="1" fill-rule="nonzero"/></svg>